:SAMPLES-PER-SECOND 30
:FRAME-RANGE 1-1700
:FULLY-SPECIFIED
:DEGREES
266
root  -5.79758 35.3701 4.76651 -10.7755 77.5558 7.33249
RightUpLeg  -17.8711 -4.78753 3.96123
RightLeg  48.6644 -2.36483 -3.22591
RightFoot  -13.0497 -0.177452 -5.98755
RightToes  6.35937e-011 1.2921e-014 -6.02303e-014
Spine  25.7933 0.0855073 6.00507
Spine1  1.08524 -0.583517 4.19834
HEad  17.5662 26.4318 -10.0575
LeftShoulder1  3.02829 -12.5074 -12.2957
LeftArm  28.7274 -38.7658 -77.3035
LeftForeArm  62.6474 -6.52966 -13.7349
LeftHand  -0.223174 10.3528 -3.71695
RightShoulder  2.94614 8.79809 17.9006
RightArm  -7.32805 37.077 75.8366
RightForeArm  94.7161 -4.68814 6.2914
RightHand  0.571007 -10.1388 -14.5846
LeftUpLeg  -93.8591 17.4988 -52.0411
LeftLeg  112.49 -3.90319 7.84228
LeftFoot  -27.5115 -0.479588 -4.53869
LeftToes  -1.9349e-011 5.45182e-011 1.33515e-010
267
root  -5.02008 34.4215 5.09632 -11.8419 78.8291 6.38181
RightUpLeg  -19.8395 -3.18491 4.80907
RightLeg  55.7495 -3.66216 -6.19667
RightFoot  -17.7437 -0.364082 -4.36325
RightToes  6.35937e-011 1.2921e-014 -6.02303e-014
Spine  25.4733 -0.0455332 3.52764
Spine1  2.05856 -1.5923 6.63695
HEad  19.2945 26.7649 -7.39465
LeftShoulder1  3.04191 -12.8157 -11.982
LeftArm  24.5165 -39.3167 -76.3698
LeftForeArm  63.8223 -3.51566 -14.3207
LeftHand  -0.208706 9.80181 -3.88198
RightShoulder  2.91553 8.44523 18.4093
RightArm  -6.72598 37.037 76.3744
RightForeArm  95.7587 -4.67812 6.52939
RightHand  0.617026 -10.5695 -14.4265
LeftUpLeg  -93.8637 17.9456 -53.6536
LeftLeg  113.638 -5.27393 10.2206
LeftFoot  -27.6982 -0.294113 -3.20486
LeftToes  -1.9349e-011 5.45182e-011 1.33515e-010
268
root  -4.4276 33.7857 5.26531 -11.1325 80.467 6.32454
RightUpLeg  -21.7681 -3.2439 4.94201
RightLeg  60.2438 -3.96007 -7.95991
RightFoot  -21.0325 -0.417337 -3.24383
RightToes  6.35937e-011 1.2921e-014 -6.02303e-014
Spine  25.9079 -0.774517 2.67193
Spine1  1.26934 -2.22711 6.92278
HEad  19.1757 26.3099 -6.38566
LeftShoulder1  3.01973 -12.8991 -11.7223
LeftArm  26.0714 -38.2725 -75.1433
LeftForeArm  59.4108 -5.05496 -14.1847
LeftHand  -0.184466 8.95516 -4.17715
RightShoulder  2.80382 8.06846 18.2327
RightArm  -5.40504 35.7721 76.6599
RightForeArm  94.848 -4.92049 7.77105
RightHand  0.559718 -10.3834 -13.67
LeftUpLeg  -93.8327 16.739 -55.427
LeftLeg  114.381 -5.13768 9.62202
LeftFoot  -27.3428 -0.375993 -3.8436
LeftToes  -1.9349e-011 5.45182e-011 1.33515e-010
269
root  -3.84837 33.5163 5.49277 -8.6893 80.9851 8.03094
RightUpLeg  -22.5647 -2.96559 5.02592
RightLeg  62.5421 -4.05884 -8.98497
RightFoot  -23.0384 -0.43994 -2.772
RightToes  6.35937e-011 1.2921e-014 -6.02303e-014
Spine  25.8438 -0.886807 2.63525
Spine1  1.25593 -2.12774 6.22888
HEad  18.4598 25.9531 -6.09647
LeftShoulder1  2.95158 -12.7724 -11.416
LeftArm  30.4099 -37.2932 -74.8276
LeftForeArm  56.3891 -7.9271 -13.5113
LeftHand  -0.177254 8.99019 -3.91188
RightShoulder  2.74634 7.90655 18.0614
RightArm  -4.04802 34.7996 76.209
RightForeArm  92.8046 -5.22648 9.09907
RightHand  0.569378 -10.2736 -14.1727
LeftUpLeg  -94.2182 16.3052 -56.2665
LeftLeg  114.483 -4.80034 8.92031
LeftFoot  -27.589 -0.424258 -4.13293
LeftToes  -1.9349e-011 5.45182e-011 1.33515e-010
270
root  -3.26165 33.3209 5.76569 -4.24942 81.339 11.7135
RightUpLeg  -23.1189 -2.35829 4.94699
RightLeg  64.4143 -4.18801 -10.0663
RightFoot  -24.8841 -0.424647 -2.1565
RightToes  6.35937e-011 1.2921e-014 -6.02303e-014
Spine  25.7468 -0.529353 2.38597
Spine1  0.838601 -1.74603 5.76142
HEad  18.6417 25.6799 -5.71324
LeftShoulder1  2.83858 -12.5574 -10.9026
LeftArm  30.8401 -37.0442 -75.8263
LeftForeArm  57.0045 -8.72669 -13.0935
LeftHand  -0.181308 9.17205 -3.81789
RightShoulder  2.75881 7.86463 18.2821
RightArm  -4.10033 34.6331 75.4194
RightForeArm  92.092 -5.28285 9.24756
RightHand  0.543491 -10.0155 -14.2957
LeftUpLeg  -94.884 15.2253 -56.4946
LeftLeg  114.009 -4.87677 9.26099
LeftFoot  -27.8234 -0.450458 -4.26397
LeftToes  -1.9349e-011 5.45182e-011 1.33515e-010
271
root  -2.68696 33.236 6.00663 0.36557 82.1432 15.9782
RightUpLeg  -22.7334 -2.21786 4.7226
RightLeg  65.4654 -4.40168 -11.0744
RightFoot  -26.6409 -0.372599 -1.42924
RightToes  6.35937e-011 1.2921e-014 -6.02303e-014
Spine  25.796 -0.233808 2.45234
Spine1  0.470531 -1.51989 5.5871
HEad  18.8436 25.3512 -6.03859
LeftShoulder1  2.80714 -12.6902 -10.5182
LeftArm  31.6359 -37.5118 -76.8163
LeftForeArm  56.0756 -8.99198 -13.0068
LeftHand  -0.179475 9.20466 -3.92273
RightShoulder  2.75113 7.90186 18.1189
RightArm  -4.20476 35.0929 75.0131
RightForeArm  91.8824 -5.27584 9.14189
RightHand  0.523513 -10.0037 -13.8555
LeftUpLeg  -94.9193 14.1578 -56.192
LeftLeg  113.258 -5.02854 9.89004
LeftFoot  -27.7149 -0.469238 -4.41838
LeftToes  -1.9349e-011 5.45182e-011 1.33515e-010
272
root  -2.09534 33.2248 6.225 5.27927 82.5298 20.5554
RightUpLeg  -22.0306 -1.32153 4.61602
RightLeg  66.0373 -4.78564 -12.2926
RightFoot  -28.1462 -0.246224 -0.373801
RightToes  6.35937e-011 1.2921e-014 -6.02303e-014
Spine  25.4999 0.000411036 2.72206
Spine1  0.489984 -1.26104 5.20373
HEad  19.0634 25.3297 -6.29104
LeftShoulder1  2.75758 -12.6287 -10.2477
LeftArm  33.0201 -37.9968 -77.5968
LeftForeArm  55.749 -8.85333 -13.1744
LeftHand  -0.178649 9.2185 -3.79813
RightShoulder  2.76709 8.07062 17.8769
RightArm  -4.92063 35.5916 74.9609
RightForeArm  92.544 -5.14813 8.52824
RightHand  0.528217 -9.97857 -14.0383
LeftUpLeg  -95.2337 13.6708 -56.1007
LeftLeg  112.597 -5.20472 10.564
LeftFoot  -27.9138 -0.434704 -4.13614
LeftToes  -1.9349e-011 5.45182e-011 1.33515e-010
273
root  -1.49367 33.183 6.4051 14.0801 82.8824 29.0138
RightUpLeg  -21.4852 -1.34554 3.82791
RightLeg  66.8632 -4.81025 -12.8647
RightFoot  -29.8483 -0.167411 0.217191
RightToes  6.35937e-011 1.2921e-014 -6.02303e-014
Spine  25.1786 0.104854 2.61822
Spine1  0.0660218 -1.18293 4.74608
HEad  18.7887 25.2423 -6.59144
LeftShoulder1  2.79711 -12.7822 -10.3366
LeftArm  31.8327 -37.727 -77.328
LeftForeArm  56.5418 -8.62895 -13.179
LeftHand  -0.176118 9.15757 -3.68301
RightShoulder  2.76009 8.03632 17.8895
RightArm  -4.66347 35.6764 74.9013
RightForeArm  92.6208 -5.16937 8.68447
RightHand  0.545109 -10.1767 -13.8843
LeftUpLeg  -95.796 13.2759 -57.1969
LeftLeg  112.479 -5.17755 10.5643
LeftFoot  -27.9117 -0.502618 -4.60239
LeftToes  -1.9349e-011 5.45182e-011 1.33515e-010
274
root  -0.854535 33.1325 6.57299 21.3635 83.0339 36.0641
RightUpLeg  -20.7508 -1.29404 3.28706
RightLeg  67.6394 -4.85802 -13.5033
RightFoot  -31.3786 -0.116459 0.548938
RightToes  6.35937e-011 1.2921e-014 -6.02303e-014
Spine  24.6024 -0.0105748 2.49911
Spine1  -0.230281 -1.34931 4.41104
HEad  17.9967 25.4976 -7.10688
LeftShoulder1  2.85458 -12.7633 -10.7572
LeftArm  32.3698 -37.1539 -76.1967
LeftForeArm  55.0861 -9.00389 -13.1147
LeftHand  -0.172782 8.97725 -3.47016
RightShoulder  2.75015 7.99087 17.9
RightArm  -3.59299 35.491 75.2311
RightForeArm  92.51 -5.2936 9.4384
RightHand  0.518038 -10.0454 -13.6114
LeftUpLeg  -96.489 13.171 -58.2378
LeftLeg  112.993 -5.13976 10.2416
LeftFoot  -28.1689 -0.517362 -4.64127
LeftToes  -1.9349e-011 5.45182e-011 1.33515e-010
275
root  -0.249264 33.0949 6.75365 27.2364 83.3891 41.8852
RightUpLeg  -19.7463 -1.30254 3.10943
RightLeg  68.2178 -4.94819 -14.1502
RightFoot  -32.6531 -0.0191334 1.08003
RightToes  6.35937e-011 1.2921e-014 -6.02303e-014
Spine  23.958 -0.226006 2.07895
Spine1  -0.486235 -1.73988 4.77075
HEad  17.2998 25.6066 -7.39379
LeftShoulder1  2.90535 -12.7027 -11.1846
LeftArm  31.6837 -36.5927 -75.1248
LeftForeArm  54.564 -8.7909 -13.2182
LeftHand  -0.174025 9.00709 -3.62925
RightShoulder  2.80652 7.9319 18.5828
RightArm  -3.45917 35.0813 75.383
RightForeArm  93.1846 -5.2897 9.61213
RightHand  0.580158 -10.4097 -14.0499
LeftUpLeg  -96.9776 12.9806 -58.3894
LeftLeg  113.483 -5.04069 9.81642
LeftFoot  -28.073 -0.414954 -3.96872
LeftToes  -1.9349e-011 5.45182e-011 1.33515e-010
276
root  0.405963 33.0463 7.00328 36.2499 83.8771 51.2419
RightUpLeg  -18.1462 -2.25827 2.76573
RightLeg  68.7158 -4.93586 -14.4965
RightFoot  -34.1644 0.0394291 1.34942
RightToes  6.35937e-011 1.2921e-014 -6.02303e-014
Spine  23.1685 0.00675242 0.979687
Spine1  -0.811127 -2.06079 6.04583
HEad  15.6561 25.0004 -7.8028
LeftShoulder1  2.96947 -12.6879 -11.648
LeftArm  32.4057 -36.3034 -74.9631
LeftForeArm  55.2748 -8.06895 -13.6609
LeftHand  -0.161945 8.69315 -3.79863
RightShoulder  2.87287 7.69306 19.8193
RightArm  -3.79735 34.7146 74.6709
RightForeArm  94.0237 -5.25753 9.65518
RightHand  0.593249 -10.6041 -13.8367
LeftUpLeg  -97.0972 12.826 -58.2786
LeftLeg  114.309 -5.22464 9.8246
LeftFoot  -28.5414 -0.471437 -4.25114
LeftToes  -1.9349e-011 5.45182e-011 1.33515e-010
277
root  1.10053 33.0263 7.23872 38.0288 83.8679 53.4656
RightUpLeg  -16.1793 -2.67824 2.80339
RightLeg  68.7934 -4.91986 -14.5145
RightFoot  -35.618 0.0485972 1.3566
RightToes  6.35937e-011 1.2921e-014 -6.02303e-014
Spine  22.4736 0.307205 1.07111
Spine1  -1.48774 -1.87777 6.05312
HEad  13.5134 24.3795 -7.93123
LeftShoulder1  3.20155 -12.8311 -13.0555
LeftArm  31.4629 -35.7815 -74.0327
LeftForeArm  56.9511 -6.73023 -14.2274
LeftHand  -0.153748 8.69209 -3.52807
RightShoulder  2.9429 7.5301 20.9355
RightArm  -4.59317 34.4553 74.1296
RightForeArm  95.4103 -5.14381 9.34246
RightHand  0.617285 -10.8825 -13.6627
LeftUpLeg  -97.3601 12.4521 -57.532
LeftLeg  115.211 -6.4346 11.714
LeftFoot  -28.5921 -0.600282 -5.08874
LeftToes  -1.9349e-011 5.45182e-011 1.33515e-010
278
root  1.80792 33.1131 7.50274 36.4492 83.3976 52.0141
RightUpLeg  -14.228 -2.75175 2.82919
RightLeg  68.2526 -4.96316 -14.2156
RightFoot  -36.7557 -0.00379385 1.09728
RightToes  6.35937e-011 1.2921e-014 -6.02303e-014
Spine  20.9123 0.44359 0.745222
Spine1  -1.95278 -1.97219 6.10222
HEad  10.7351 24.4441 -8.16747
LeftShoulder1  3.5714 -12.9124 -15.4512
LeftArm  28.648 -35.1317 -72.1071
LeftForeArm  60.9403 -3.85921 -15.0632
LeftHand  -0.169818 9.31672 -3.3365
RightShoulder  3.15257 7.68617 22.5629
RightArm  -6.5946 34.2988 73.9901
RightForeArm  98.5079 -4.79373 8.04909
RightHand  0.688103 -11.5587 -13.5249
LeftUpLeg  -98.0475 12.5505 -57.2879
LeftLeg  116.328 -7.15447 12.452
LeftFoot  -28.4643 -0.823652 -6.60246
LeftToes  -1.9349e-011 5.45182e-011 1.33515e-010
